#!OML:ASF I:\Actors\actors\Patient Classification 1\Patient 1\Session 1\Subject1.ASF
:FULLY-SPECIFIED
:DEGREES
149
root -0.849094 17.5767 8.11756 6.38724 16.9406 -5.58551
lowerback 3.87149 5.56955 6.84916
upperback -9.76874 8.46074 1.03486
thorax -11.9416 3.53683 -3.79344
lowerneck -6.73994 -10.3153 -6.41767
upperneck 23.6784 -14.1909 3.35416
head 9.25335 -6.85517 0.72246
rclavicle -2.42766e-014 -2.24627e-014
rhumerus 13.0374 6.11809 -77.5351
rradius 33.8251
rwrist -1.27148
rhand -0.437436 -33.9043
rfingers 7.12502
rthumb 25.1713 -62.2646
lclavicle -2.42766e-014 -2.24627e-014
lhumerus -72.6723 47.3649 17.0138
lradius 18.9019
lwrist -38.1205
lhand -17.8791 -17.2785
lfingers 7.12502
lthumb 8.38703 12.535
rfemur 4.14503 21.1933 28.2872
rtibia -0.556936
rfoot -19.6683 -35.564
rtoes 17.6302
lfemur -2.0529 -35.0356 -10.4305
ltibia -0.141914
lfoot -5.12495 25.4819
ltoes -18.2897
150
root -0.852185 17.5728 8.13315 6.29248 17.0552 -5.53182
lowerback 3.75444 5.67259 6.59246
upperback -9.69362 8.55099 0.976996
thorax -11.7952 3.61116 -3.70823
lowerneck -6.90516 -10.5129 -6.77612
upperneck 23.7263 -14.4992 3.71833
head 9.37751 -6.98695 0.845751
rclavicle 4.33351e-014 2.62396e-014
rhumerus 9.58944 6.82468 -78.4323
rradius 33.0673
rwrist -1.73778
rhand -0.133538 -34.1535
rfingers 7.12502
rthumb 25.4625 -62.4725
lclavicle 4.33351e-014 2.62396e-014
lhumerus -72.3001 47.4327 17.7069
lradius 19.1066
lwrist -37.4281
lhand -17.7443 -17.3546
lfingers 7.12502
lthumb 8.51712 12.4536
rfemur 4.36706 21.2204 28.3581
rtibia -0.578466
rfoot -19.8322 -35.6986
rtoes 17.4307
lfemur -1.99216 -34.9312 -10.5369
ltibia 0.00316343
lfoot -5.20803 25.3082
ltoes -18.3264
151
root -0.854952 17.5685 8.15113 6.30996 17.1784 -5.44301
lowerback 3.51445 5.79796 6.30333
upperback -9.62803 8.65988 0.92264
thorax -11.5893 3.70149 -3.58876
lowerneck -7.12759 -10.7314 -7.21114
upperneck 23.7405 -14.813 4.05533
head 9.50796 -7.1292 0.966549
rclavicle -6.4605e-015 -1.61016e-014
rhumerus 6.46009 7.12932 -79.5653
rradius 31.5232
rwrist -1.54008
rhand -0.301023 -34.5169
rfingers 7.12502
rthumb 25.302 -62.8588
lclavicle -6.4605e-015 -1.61016e-014
lhumerus -72.0476 47.4412 18.3455
lradius 19.2765
lwrist -36.8299
lhand -17.626 -17.8029
lfingers 7.12502
lthumb 8.63128 12.0007
rfemur 4.51644 21.4195 28.389
rtibia -0.648308
rfoot -19.9802 -36.012
rtoes 17.2814
lfemur -2.03258 -34.9883 -10.622
ltibia 0.160133
lfoot -5.40764 25.3088
ltoes -18.1495
152
root -0.857996 17.5639 8.17097 6.40853 17.2887 -5.29554
lowerback 3.22386 5.91578 5.95224
upperback -9.58 8.75334 0.877854
thorax -11.3864 3.79004 -3.41887
lowerneck -7.40722 -10.9446 -7.58283
upperneck 23.7647 -15.1103 4.32768
head 9.64344 -7.26264 1.05375
rclavicle -3.36195e-014 -1.98785e-016
rhumerus 3.77546 6.32497 -80.9412
rradius 29.407
rwrist 0.766613
rhand 0.60051 -34.9897
rfingers 7.12502
rthumb 26.1654 -63.2066
lclavicle -3.36195e-014 -1.98785e-016
lhumerus -72.0543 47.4503 18.6565
lradius 19.3194
lwrist -36.6225
lhand -17.7678 -18.346
lfingers 7.12502
lthumb 8.49442 11.4632
rfemur 4.62835 21.7428 28.3608
rtibia -0.739442
rfoot -20.2429 -36.4117
rtoes 17.524
lfemur -2.07937 -35.0328 -10.737
ltibia 0.218959
lfoot -5.51696 25.2929
ltoes -18.2913
153
root -0.860631 17.5593 8.19073 6.54002 17.33 -5.13612
lowerback 2.95894 5.97524 5.59573
upperback -9.55562 8.77636 0.8567
thorax -11.2396 3.84212 -3.21882
lowerneck -7.71498 -11.0642 -7.78342
upperneck 23.8168 -15.2773 4.50158
head 9.7635 -7.32974 1.09757
rclavicle -1.32937e-014 -5.66536e-015
rhumerus 1.68112 3.9316 -82.5464
rradius 27.5676
rwrist 3.61616
rhand 0.693776 -35.3891
rfingers 7.12502
rthumb 26.2547 -63.5927
lclavicle -1.32937e-014 -5.66536e-015
lhumerus -72.5939 47.5188 18.2568
lradius 19.2341
lwrist -36.9124
lhand -18.0453 -18.7961
lfingers 7.12502
lthumb 8.22657 11.0237
rfemur 4.69583 22.0342 28.2832
rtibia -0.82306
rfoot -20.6043 -36.6564
rtoes 18.1504
lfemur -2.08403 -35.0085 -10.862
ltibia 0.161051
lfoot -5.53574 25.2641
ltoes -18.5471
154
root -0.861982 17.5556 8.20705 6.66642 17.2593 -5.01141
lowerback 2.78719 5.97979 5.31658
upperback -9.53953 8.74367 0.857849
thorax -11.1576 3.85673 -3.04335
lowerneck -8.08009 -11.0801 -7.8707
upperneck 23.9406 -15.2998 4.60751
head 9.89451 -7.32435 1.11675
rclavicle 5.94863e-014 4.47266e-014
rhumerus 0.631555 0.674877 -84.0215
rradius 25.5657
rwrist 6.38174
rhand 0.670922 -35.4292
rfingers 7.12502
rthumb 26.2328 -63.6361
lclavicle 5.94863e-014 4.47266e-014
lhumerus -73.441 47.5346 17.4838
lradius 19.0947
lwrist -37.4805
lhand -18.1777 -19.1028
lfingers 7.12502
lthumb 8.09884 10.722
rfemur 4.68634 22.1242 28.1668
rtibia -0.85367
rfoot -20.7449 -36.6376
rtoes 18.3982
lfemur -2.02616 -34.9996 -10.9829
ltibia 0.049273
lfoot -5.5756 25.3354
ltoes -18.6422
155
root -0.861135 17.5538 8.21502 6.76308 17.161 -5.0051
lowerback 2.74349 5.95776 5.22458
upperback -9.53192 8.70636 0.900314
thorax -11.145 3.8501 -2.94009
lowerneck -8.43442 -11.02 -7.58624
upperneck 23.9487 -15.1759 4.34397
head 9.90692 -7.26193 0.982417
rclavicle 3.98812e-014 1.66979e-014
rhumerus 0.94836 -4.33629 -85.0389
rradius 23.5315
rwrist 13.8782
rhand -0.528361 -33.3887
rfingers 7.12502
rthumb 25.0842 -61.7612
lclavicle 3.98812e-014 1.66979e-014
lhumerus -74.572 47.5802 16.3505
lradius 18.8582
lwrist -38.6139
lhand -18.1853 -19.3011
lfingers 7.12502
lthumb 8.0915 10.524
rfemur 4.55997 21.9742 28.0918
rtibia -0.80556
rfoot -20.596 -36.4208
rtoes 18.0529
lfemur -2.01962 -34.9754 -10.9592
ltibia -0.0269844
lfoot -5.61389 25.3883
ltoes -18.6699
156
root -0.858077 17.5543 8.2141 6.81885 17.0588 -5.09513
lowerback 2.85224 5.90949 5.29499
upperback -9.54369 8.66547 0.988411
thorax -11.2332 3.82381 -2.89516
lowerneck -8.72833 -10.9421 -7.42224
upperneck 23.9615 -15.0433 4.20644
head 9.93125 -7.19392 0.912503
rclavicle 4.69629e-014 2.32578e-014
rhumerus 1.72904 -5.36377 -85.4403
rradius 22.5705
rwrist 14.2503
rhand -0.825663 -33.3509
rfingers 7.12502
rthumb 24.7993 -61.763
lclavicle 4.69629e-014 2.32578e-014
lhumerus -76.1072 47.7058 14.6182
lradius 18.4677
lwrist -40.473
lhand -18.1054 -19.4553
lfingers 7.12502
lthumb 8.16857 10.3668
rfemur 4.3467 21.6248 28.0466
rtibia -0.699997
rfoot -20.2658 -36.0301
rtoes 17.6369
lfemur -2.06659 -34.9613 -10.8152
ltibia -0.0709309
lfoot -5.61656 25.4399
ltoes -18.7452
157
root -0.85783 17.5535 8.20916 6.96146 16.9099 -5.18581
lowerback 2.98909 5.83559 5.33073
upperback -9.60593 8.59441 1.0825
thorax -11.4051 3.78205 -2.82941
lowerneck -8.97346 -10.8568 -7.42708
upperneck 24.0779 -14.9487 4.33287
head 10.0239 -7.12836 0.951061
rclavicle 3.76697e-014 3.598e-014
rhumerus 2.74442 -3.56523 -85.598
rradius 23.0525
rwrist 8.72113
rhand 0.0875081 -35.658
rfingers 7.12502
rthumb 25.6742 -63.9467
lclavicle 3.76697e-014 3.598e-014
lhumerus -77.8091 47.7973 12.5108
lradius 17.9952
lwrist -42.7904
lhand -17.8474 -19.5861
lfingers 7.12502
lthumb 8.41759 10.2262
rfemur 4.04692 21.4812 27.9971
rtibia -0.609791
rfoot -20.0175 -35.7459
rtoes 17.4834
lfemur -2.23825 -34.9771 -10.5793
ltibia -0.109783
lfoot -5.69632 25.5597
ltoes -18.5588
158
root -0.860263 17.5573 8.20202 7.07972 16.6604 -5.27102
lowerback 3.22304 5.75607 5.34655
upperback -9.66236 8.5195 1.16065
thorax -11.6302 3.73609 -2.78028
lowerneck -9.21919 -10.7589 -7.34664
upperneck 24.3677 -14.8471 4.39355
head 10.1663 -7.05525 0.952957
rclavicle 3.80176e-014 -6.75868e-015
rhumerus 5.05287 -3.82995 -85.8293
rradius 23.4392
rwrist 8.95012
rhand -0.135917 -35.368
rfingers 7.12502
rthumb 25.4602 -63.6874
lclavicle 3.80176e-014 -6.75868e-015
lhumerus -79.6196 47.8946 10.1252
lradius 17.5705
lwrist -45.3713
lhand -17.1762 -19.6323
lfingers 7.12502
lthumb 9.06532 10.1528
rfemur 3.8308 21.6692 28.0099
rtibia -0.560635
rfoot -19.9189 -35.6527
rtoes 17.3346
lfemur -2.29454 -35.1018 -10.4093
ltibia -0.191425
lfoot -5.8268 25.8883
ltoes -17.9224
159
root -0.857049 17.5696 8.18991 7.12108 16.4042 -5.29429
lowerback 3.61476 5.69514 5.48833
upperback -9.70692 8.48367 1.14885
thorax -11.904 3.68828 -2.91534
lowerneck -9.34281 -10.6778 -7.058
upperneck 24.655 -14.7512 4.21046
head 10.247 -6.99648 0.848954
rclavicle -1.06226e-013 -3.67752e-014
rhumerus 7.81375 -1.72478 -85.1708
rradius 24.717
rwrist 6.5361
rhand 0.333666 -35.4768
rfingers 7.12502
rthumb 25.9099 -63.7313
lclavicle -1.06226e-013 -3.67752e-014
lhumerus -81.3445 48.0171 7.65155
lradius 17.2169
lwrist -48.0838
lhand -16.3223 -19.4704
lfingers 7.12502
lthumb 9.88926 10.2773
rfemur 3.72505 21.8216 27.9485
rtibia -0.571814
rfoot -19.7526 -35.5648
rtoes 17.0257
lfemur -2.2233 -35.4306 -10.4556
ltibia -0.259473
lfoot -5.75861 26.4287
ltoes -17.4467
160
root -0.849807 17.5787 8.17539 7.37969 16.3352 -5.31717
lowerback 3.81595 5.64483 5.78005
upperback -9.82526 8.45983 1.04715
thorax -12.1128 3.63043 -3.20905
lowerneck -9.25215 -10.6781 -6.90039
upperneck 24.712 -14.7904 4.20899
head 10.2392 -7.00185 0.824288
rclavicle 6.3139e-014 5.1684e-015
rhumerus 11.0743 0.861679 -83.832
rradius 26.3063
rwrist 3.87894
rhand 0.440511 -35.6888
rfingers 7.12502
rthumb 26.0122 -63.9283
lclavicle 6.3139e-014 5.1684e-015
lhumerus -82.7507 48.2156 5.35635
lradius 16.9033
lwrist -50.6756
lhand -15.6551 -19.222
lfingers 7.12502
lthumb 10.5329 10.4941
rfemur 3.38502 21.934 27.781
rtibia -0.653001
rfoot -19.6347 -35.5775
rtoes 16.9918
lfemur -2.62098 -35.6929 -10.2493
ltibia -0.234558
lfoot -5.58766 26.7754
ltoes -17.3311
161
root -0.844528 17.5846 8.16508 7.75183 16.3502 -5.38099
lowerback 3.86457 5.59077 6.08708
upperback -9.96116 8.42329 0.951605
thorax -12.2502 3.56922 -3.48598
lowerneck -9.06766 -10.6959 -6.82451
upperneck 24.6357 -14.851 4.27132
head 10.1791 -7.02287 0.838744
rclavicle 4.48508e-014 -2.38542e-015
rhumerus 14.563 3.47278 -81.9319
rradius 28.3504
rwrist 1.49426
rhand 0.408324 -35.5502
rfingers 7.12502
rthumb 25.9814 -63.7942
lclavicle 4.48508e-014 -2.38542e-015
lhumerus -83.4493 48.3768 3.99298
lradius 16.7424
lwrist -52.2461
lhand -15.2056 -18.9122
lfingers 7.12502
lthumb 10.9665 10.7813
rfemur 2.93888 22.0625 27.6357
rtibia -0.761475
rfoot -19.6 -35.6481
rtoes 17.2072
lfemur -3.19928 -35.8104 -9.83821
ltibia -0.253628
lfoot -5.46546 26.9333
ltoes -17.2836
162
root -0.841222 17.5921 8.15772 8.0835 16.3694 -5.38421
lowerback 4.00653 5.52882 6.28519
upperback -10.0858 8.37742 0.893483
thorax -12.4547 3.51142 -3.67493
lowerneck -8.98923 -10.6696 -6.57486
upperneck 24.6795 -14.7809 3.94869
head 10.1265 -7.00533 0.707131
rclavicle 2.19906e-014 -3.77691e-015
rhumerus 18.1985 5.73353 -79.6277
rradius 30.5599
rwrist -1.08885
rhand 0.563696 -35.4628
rfingers 7.12502
rthumb 26.1302 -63.6849
lclavicle 2.19906e-014 -3.77691e-015
lhumerus -82.8439 48.2573 4.58086
lradius 16.8699
lwrist -51.9168
lhand -15.0942 -18.164
lfingers 7.12502
lthumb 11.0739 11.5239
rfemur 2.63 22.2653 27.4864
rtibia -0.944585
rfoot -19.5758 -35.8117
rtoes 17.4761
lfemur -3.64212 -36.0062 -9.56023
ltibia -0.314193
lfoot -5.4442 27.1286
ltoes -16.9751
